<svg width="32" height="32" viewBox="0 0 32 32" fill="none" xmlns="http://www.w3.org/2000/svg">
    <g clip-path="url(#clip0_72_78)">
        <path
            d="M31.3957 14.5728L17.4245 0.602566C16.6196 -0.200855 15.3154 -0.200855 14.5073 0.602566L11.6126 3.50096L15.2914 7.18197C16.1507 6.8955 17.13 7.08755 17.8101 7.76934C18.4982 8.45753 18.687 9.4482 18.3942 10.3028L21.937 13.851C22.7979 13.5533 23.7868 13.747 24.4701 14.4304C25.4318 15.3906 25.4318 16.9415 24.4701 17.9017C23.5116 18.862 21.9642 18.862 21.0041 17.9017C20.2856 17.1815 20.1048 16.1204 20.4648 15.2418L17.146 11.9401V20.6417C17.3797 20.7553 17.6037 20.9122 17.7973 21.1058C18.7494 22.0677 18.7494 23.6153 17.7973 24.5724C16.8388 25.5342 15.2786 25.5342 14.3185 24.5724C13.36 23.6137 13.36 22.0677 14.3185 21.109C14.5617 20.8689 14.8338 20.6865 15.125 20.5665V11.78C14.8354 11.6584 14.5601 11.4824 14.3249 11.2455C13.5984 10.5189 13.424 9.4562 13.7968 8.56636L10.1804 4.93176L0.600071 14.5056C-0.200024 15.3122 -0.200024 16.6182 0.600071 17.4248L14.5713 31.395C15.3762 32.2017 16.6804 32.2017 17.4853 31.395L31.3909 17.4888C32.2022 16.687 32.2022 15.3794 31.3957 14.5728Z"
            fill="#D90062" />
    </g>
    <defs>
        <clipPath id="clip0_72_78">
            <rect width="32" height="32" fill="white" />
        </clipPath>
    </defs>
</svg>